# xmcd
#
# Track frame offsets: 
#        150
#        10943
#        21348
#        31813
#        49204
#        62464
#        77165
#        95041
#        104645
#        120914
#        138330
#        152592
#        164317
#        179531
#        191709
#        206619
#
# Disc length: 2963 seconds
#
# Revision: 6
# Processed by: cddbd v1.5.2PL0 Copyright (c) Steve Scherf et al.
# Submitted via: ExactAudioCopy v0.99pb5
#
DISCID=d40b9110
DTITLE=Various Artist - The Relaxing Sound of Body and Soul - CD 1
DYEAR=2001
DGENRE=Charts  Oldies
TTITLE0=Aretha Franklin - Respect
TTITLE1=Arthur Conley - Sweet Soul music
TTITLE2=Bar Kays - Soul finger
TTITLE3=Barry White - Can't get enough from your Love
TTITLE4=Ben E. King - Spanish Harlem
TTITLE5=Booker T and The MG's - Time is tight
TTITLE6=Brook Benton - A rainy Night in Georgia
TTITLE7=Carla Thomas - Baby
TTITLE8=Commodores - Three times a Lady
TTITLE9=Curtis Mayfield - Superfly
TTITLE10=Detroit Spinners - It's a Shame
TTITLE11=Drifters - Under the Boardwalk
TTITLE12=Edwin Star - War
TTITLE13=Four Tops - I can't help myself
TTITLE14=George Mc Gray - Rock your Baby
TTITLE15=Harold Melvin and The Blue - If you don't know me by now
EXTD=
EXTT0=
EXTT1=
EXTT2=
EXTT3=
EXTT4=
EXTT5=
EXTT6=
EXTT7=
EXTT8=
EXTT9=
EXTT10=
EXTT11=
EXTT12=
EXTT13=
EXTT14=
EXTT15=
PLAYORDER=
